<?xml version="1.0" encoding="UTF-8"?>
<svg id="coralBanner1" xmlns="http://www.w3.org/2000/svg" viewBox="0 0 127.6 236.45">
  <defs>
    <style>
      .cls-1, .cls-2 {
        stroke-width: 1.05px;
      }

      .cls-1, .cls-2, .cls-3 {
        fill: none;
      }

      .cls-1, .cls-2, .cls-3, .cls-4 {
        stroke: #570060;
      }

      .cls-1, .cls-3, .cls-4 {
        stroke-miterlimit: 10;
      }

      .cls-2 {
        stroke-linecap: round;
        stroke-linejoin: round;
      }

      .cls-3 {
        stroke-width: .63px;
      }

      .cls-4 {
        fill: #ffebde;
      }
    </style>
  </defs>
  <path class="cls-4" d="M59.05,57.81c-.59.78-.77,1.86-1.47,2.65,1.34.53,1.63,3.73.57,4.71.96-.25,1.6.98,2,1.88s2.2,2.2,1.37,2.74c.89.59,1.76,1.36,1.9,2.42.85.36,1.85.92,2.15,1.79.18.53.11,1.18.52,1.55.31.28,1.12.35,1.45.61.14.11.23.26.32.41.76,1.2,2.02,2.08,3.42,2.37.18.04.36.07.52.15.55.29.58,1.1.3,1.65.49.16.69.91,1.08,1.26.34.3.83.37,1.26.53,1.47.51,2.36,1.96,3.14,3.31.54.09,1.34.31,1.88.4.23.04.46.08.66.19.59.31.77,1.07.79,1.75.29.11.81.56,1.1.67.81.3,1.67.63,2.17,1.33.63.87.58,2.17,1.4,2.87.19.17.42.29.63.43.56.38,1,.92,1.25,1.55.16.4.76.51,1.19.59.74.13,1.47.25,2.21.38.38.06.77.14,1.07.36s.5.66.33,1c-.11.21-.33.34-.52.48-.69.48-1.23.74-1.83,1.4.17.46.36.92.53,1.38.15.41.3.82.55,1.18.22.32.5.59.77.87.68.72,1.25,1.55,1.68,2.45.34.71.59,1.58.21,2.27.65.46,1.53.79,2.27,1.1.74.3,1.48.72,1.86,1.42s.26,1.72-.45,2.1c-.5.27-1.23.2-1.52.69-.07.12-.11.27-.13.41-.53,3.03,2.09,6.05,1.27,9.01-.24.86,1.06,1.62,1.77,2.15s1.49,1.04,1.9,1.83.26,1.95-.56,2.3c-.89.38-2.01-.39-2.85.09-.56.31-.73,1.03-.84,1.67-.21,1.21-.43,2.41-.64,3.62-.19,1.09-.39,2.21-.18,3.29.17.87.58,1.67.85,2.51s.37,1.81-.07,2.58c-.44.77-1.57,1.17-2.25.59-.43-.37-.65-1.06-1.21-1.12-.82,2.36-3.34,3.91-4.23,6.24-.17.45-.29.94-.6,1.31s-.88.59-1.28.31c.43.31.31,1.03.18,1.54-.23.93-.68,1.81-1.3,2.54-.07.08-.14.16-.24.21-.12.07-.27.08-.41.07-.48-.04-.91-.33-1.22-.7s-.52-.81-.72-1.25c-.35.1-.65.04-1.01,0-1.47-.14-2.99.25-4.2,1.1.28.55.63,1.25.89,1.81.19.4.39.84.3,1.28-.14.65-.83,1-1.45,1.26-.61.26-1.22.51-1.84.77,1.12,1.09,1.86,2.6,2.34,4.09.13.41.24.83.18,1.25s-.3.84-.7,1c-.46.18-.97-.03-1.45-.18s-1.08-.2-1.38.19c-.24.3-.19.75-.07,1.12.21.67.57,1.29.84,1.94s.43,1.39.22,2.06-.9,1.23-1.6,1.09c-.2-.04-.4-.14-.6-.14s-.44.14-.44.34c-.57.69-.87,1.29-1.09,2.16.7.81,1.42,1.76,1.69,2.79s-.06,2.31-1.02,2.78c-.69.34-1.51.19-2.23-.06-.3.54-.57,1.28-.74,1.88.4,1.11.5,2.45.33,3.61-.03.23-.08.46-.2.66-.22.36-.64.55-1.04.69-.44.16-.89.3-1.34.43-.3.4-.67.76-.97,1.16-.05.07-.11.15-.12.24,0,.1.04.19.09.27.47.85.68,1.84.59,2.81-.09.92-.54,1.91-1.42,2.21-.47.16-.99.1-1.49.04-.75.96-1.13,1.99-1.05,3.2.03.47.13.93.12,1.4-.01,1.46-1.11,2.85-2.53,3.19-.24.06-.49.09-.72.19-.72.32-.97,1.19-1.14,1.96-.21.94-.29,1.89-.19,2.84.02.16.03.33,0,.49-.04.18-.15.33-.27.46-.36.4-.85.66-1.38.75-.59.1-1.32.02-1.66.52-.01,1.15-.01,2.44-.25,3.57-.16.74-.39,1.51-.95,2.02-.82.75-2.17.77-2.85,1.64-.58.74-.51,1.9-1.23,2.51.38.41.24,1.33,0,1.85-.63,1.42-2.25,2.05-3.48,3.01-.79.61-1.49,1.54-1.34,2.53.05.35.2.73,0,1.02-.08.11-.21.19-.33.26-.82.47-1.64.93-2.45,1.4.06.42-.34.94-.71,1.15s-.79.34-1.11.62c-.22.19-.38.43-.54.66-.48.67-1.11,1.31-1.92,1.48-.69.15-1.4-.05-2.11-.04-1.84.02-3.5,1.48-5.33,1.24-.7.58-1.29,1.16-2,1.74-.46.37-1.03.77-1.59.59-.27-.09-.48-.3-.73-.43s-.61-.16-.78.07c-.27.36-.85.52-1.22.77-.45.29-.91.6-1.45.65s-1.14-.22-1.27-.73c-.64.34-1.51.38-2.18.66-.35.14-.74.28-1.09.15-.44-.15-.65-.63-.85-1.04s-.54-.86-1.01-.83c-.62.03-1.35.35-1.82-.06-.35-.31-.29-.89-.62-1.22-1.92-.23-3.7-1.41-4.66-3.09-.39-.68-.76-1.52-1.53-1.67-2.76-2.86-4.81-6.6-6.65-10.13-.38-.73-.76-1.64-.32-2.33-.9-4.05-.51-8.84,1.56-12.44,1.78-3.1,4.8-5.24,7.73-7.29l4.99,11.52c-.65.36-.68,1.18-.94,1.88-.11.31-.2.64-.21.97-.01.24.02.49,0,.73-.04.72-.44,1.36-.83,1.97.45.82.73,1.77,1.18,2.59.64.02,1.24.08,1.86.26s1.21.53,1.53,1.08c.53.9,2.32.63,2.9,1.51.57-.27,1.3-.35,1.87-.62.17-.08.35-.17.54-.18.14-.01.29,0,.43,0,.33-.01.64-.17.97-.2s.73.18.71.5c1.15-.75,2.37-1.51,3.52-2.26.45-.3.97-.78.76-1.28-.56-.44-.92-1.17-.81-1.88s.77-1.32,1.49-1.27c.42.03.82.27,1.24.25.65-.03,1.1-.64,1.41-1.2s.64-1.21,1.25-1.42c-.55-.59-.98-1.28-1.36-1.99-.11-.2-.21-.43-.16-.66.03-.12.1-.22.18-.32.59-.66,1.62-.59,2.49-.76.78-.15,1.52-.55,2.08-1.12.2-.2.38-.48.29-.74-.62-.13-.96-.38-1.44-.8s-.7-1.19-.31-1.68c.17-.21.42-.34.66-.46.82-.41,1.65-.81,2.47-1.22.19-.1.41-.21.46-.42.06-.23-.09-.45-.16-.67-.21-.68.36-1.48.01-2.11.2-.48-.39-.98-.88-1.14s-1.09-.27-1.33-.73c-.29-.55.19-1.24.76-1.48s1.23-.21,1.84-.33c1.73-.35,2.96-1.95,3.55-3.62.13-.36.24-.78.08-1.13-.12-.26-.37-.44-.6-.62-.38-.29-.75-.63-.92-1.08s-.11-1.02.27-1.31c.48-.37,1.16-.15,1.76-.1,1.56.12,3.06-1.28,3.04-2.84-.54-.38-1.09-1.06-1.56-1.53-.42-.42-.84-.96-.73-1.55.04-.19.13-.37.14-.56.02-.42-.37-.76-.41-1.18-.04-.39.22-.75.22-1.14,0-.72-.87-1.17-.96-1.88-.05-.39.14-.76.32-1.11.34-.64.68-1.28,1.02-1.92,2-3.76.65-8.74-.28-12.89-.23-1.01-.5-2.03-.98-2.95-.53-.03-1.06,0-1.54.21s-.98.44-1.51.44-1.1-.29-1.24-.8c-.14-.53.22-1.07.6-1.47.72-.74,1.58-1.31,2.31-2.04s1.31-1.69,1.25-2.72c-.02-.37-.12-.76.05-1.08-.31-.74-.69-1.56-1.37-1.98s-1.53-.59-2.3-.39c-.52.13-1.08.43-1.58.22-.62-.26-.7-1.17-.33-1.73s1.01-.87,1.6-1.17c.69-.35,1.36-.73,2.01-1.15.55-.35,1.12-.77,1.35-1.39.17-.47.23-1.17.31-1.66.1-.63.2-1.31-.07-1.89-.34-.75-1.18-1.13-1.96-1.42-.41-.15-.89-.36-.98-.79-.08-.36.16-.72.45-.95.57-.44,1.35-.54,1.91-.99.52-.41.79-1.11.68-1.77-.15-.92-.24-2.2-.84-2.92-.12-.14-.26-.28-.43-.34-.16-.06-.34-.04-.51-.03-.36.02-.71,0-1.07-.05-.44-.07-.94-.25-1.08-.67-.13-.39.11-.8.34-1.14.34-.51.67-1.01,1.01-1.52-.93-1.41-2.05-2.68-3.39-3.71-.58-.45-1.26-.87-1.99-.79-.56.06-1.05.42-1.61.47-.75.06-1.5-.55-1.58-1.3-.05-.46.23-1.01.69-1.01.93-.74,1.9-1.58,2.27-2.71.49-1.5-.26-3.16-1.31-4.33-.23-.26-.48-.51-.8-.65-.5-.22-1.07-.13-1.62-.21s-1.14-.46-1.09-1c.03-.3.24-.54.45-.77.52-.56,1.05-1.13,1.57-1.69-.14-.28-.3-.39-.47-.65-.33-.51-.06-1.17,0-1.77.07-.84-.3-1.65-.69-2.4-.34-.64-.71-1.29-1.26-1.77s-1.29-.79-2-.64c-.16-.67,0-1.5.58-1.87.32-1.3.72-2.86,1.05-4.16-.59-1.75-1.09-3.48-1.56-5.27-.12-.44-.63-.95-1.08-1.04-.56-.12-1.13.2-1.7.2-.82,0-1.57-.73-1.58-1.54,0-.34.09-.66.22-.98.44-1.11,1.18-2.1,2.12-2.83-.02-.34.17-.7.35-.99.13-.22.32-.41.42-.64.21-.5,0-1.08-.27-1.55-.27-.47-.61-.93-.66-1.48-.09-.94.7-1.81.52-2.74-.06-.33-.24-.62-.42-.9-.6-.94-1.26-1.84-1.97-2.71.65-1.38,1.14-2.91,1.78-4.3.65-1.41,1.3-2.86,1.35-4.41.05-1.72-.71-3.45-2.01-4.58-.64-.06-1.32-.76-1.43-1.4.47-1.04,1.56-1.79,2.7-1.84.17-.24.75-.52,1.02-.65.25-.12.53-.18.78-.32.66-.38.96-1.32,1.71-1.43.18-1.15.76-2.32,1.54-3.19-.3-.84-.09-1.83.08-2.7-.55-.91-1.03-1.81-1.68-2.65.03-.26.26-.4.49-.51,1.11-.52,2.22-1.04,3.33-1.56.39-.67,1.06-1.16,1.82-1.34-.07-.69.36-1.43,1.03-1.61-.3-.07-.34-.6-.2-.88s.43-.43.72-.53c-.19-.33-.14-.77.07-1.09s.52-.56.82-.79c.04-.61-.09-1.3-.47-1.79-.76-.99-1.64-2.04-1.85-3.27.29-.41.76-.59,1.26-.62s1,.09,1.49.2c.95.23,1.95.49,2.62,1.19.2.21.37.45.63.57.6-.34,1.24-.53,1.93-.64.23-.04.46-.04.69-.09.36-.08.69-.27,1.02-.43.39-.2.81-.38,1.08-.72s.32-.9-.02-1.17c.96-.03,1.86-.69,2.54-1.36s1.28-1.44,2.04-2.01c.15-.11.31-.22.39-.39.08-.17.07-.37.05-.56-.06-.75-.11-1.54.15-2.25.49-1.32,2-2.25,1.96-3.66,2.4-.29,4.6-1.9,6.35-3.55,1.11-1.05,2.22-2.21,2.69-3.67.4-1.25.1-2.91-1.12-3.4-.16-.06-.34-.11-.46-.23-.43-.44.29-1.12.25-1.74-.03-.48-.52-.91-.35-1.35.13-.35.58-.45.94-.39s.71.24,1.08.24c1.04,0,2.2-.76,2.63-1.71.19-.42.34-1.01.79-1.02.39.77.92,1.46,1.56,2.03.53-.32,1.09-.75,1.52-1.2.81,1.88,1.54,3.79,2.18,5.73.31.16.84.13,1.18.09,1.24-.15,2.54.42,3.26,1.44.2.29.43.64.78.62.58-.04,1.22-.34,1.72-.64.13-.08.27-.17.42-.15.31.04.39.44.39.74,0,.73-.01,1.46-.06,2.2,1.81,3.22,5.95,4.53,8.24,7.43.31,0,.66-.18.79-.47s.07-.63-.13-.86c.39-.26.62-.65,1.01-.91.13-.09.29-.18.45-.15.14.03.24.14.32.25.76.97,1.41,2.02,1.94,3.13.41.26.84.52,1.32.46.7-.09,1.14-.76,1.55-1.33s1.02-1.17,1.7-1.01c.45.53.89,1.16.85,1.85-.02.37-.19.72-.25,1.09-.12.78.26,1.53.64,2.22.35.64.69,1.28,1.04,1.92.98.3,2.12.73,2.65,1.61.12.2.21.42.38.58.14.13.32.2.48.3.85.54.89,1.74.8,2.74s-.16,2.17.58,2.84c.21.19.46.32.7.44.36.19.73.37,1.09.56.93.48,1.94.96,2.98.8,1.32-.21,2.68-.03,4.02.04.2.01.4.02.6-.02.53-.11.94-.57,1.46-.72.58.28,1.2.46,1.84.53.22-.29.54-.46.84-.67s.69-.32,1.04-.21c.19.06.4.18.57.09.13-.07.18-.22.24-.35.33-.77,1.25-1.23,2.07-1.04.83.19,1.74-.27,2.53.05.19.08.38.18.58.19.1,0,.21,0,.31.02.1.03.19.1.27.18.72.65,1.3,1.44,1.71,2.31.09.2.18.4.19.62.01.25-.08.5-.16.74-.34.95-.67,1.97-.47,2.97.71.69,1.17,1.76,1.23,2.76-.32.21-.88.25-1.23.08s-.7-.39-1.08-.35c-.56.05-.91.62-1.15,1.13s-.5,1.1-1.03,1.28c.09.37-.21.82-.53,1.03s-.7.31-1.05.46c-.76.32-1.4.88-2.02,1.43-.67-.22-1.39-.4-2.07-.61-2.02-.65-4.11-1.3-6.23-1.15-.84.06-1.82.36-2.08,1.17-.25-.24-.34-.51-.47-.83-.97.72-2.79.05-4.01.05-.61,0-1.21.18-1.81.3-2.23.45-4.54.12-6.81.16-2.28.04-4.73.55-6.24,2.25-.14.15-.27.32-.46.39-.24.09-.51,0-.76-.06-1.32-.38-2.98-1.12-4.08-.13.09.29-.12.64-.32.88-.54.63-1.18,1.17-1.9,1.59-.51.3-.64,1-1.1,1.38-.98.82-2.51.85-3.31,1.85.05.64-.14,1.29-.24,1.92-.04.27-.11.54-.26.76s-.44.37-.7.31c-.18-.04-.33-.18-.46-.32-.4-.39-.79-.79-1.19-1.18-1-.98-2.68-.97-4.08-.88-.75.05-1.48.21-2.21.37-1.72.38-3.46.65-5.2.93-1.2.2-2.81.07-3.73,1.02-.08.08-.15.16-.21.25Z"/>
  <path class="cls-3" d="M98.77,35.69c-.88.86-2.32,1.58-3.23.98-.2-.13-.35-.32-.5-.51-.42-.54-.81-1.11-.98-1.77-.29-1.12.1-2.39.82-3.47.71-1.08,1.73-1.99,2.78-2.83,5.5-4.38,3.49,5.29,1.12,7.6Z"/>
  <path class="cls-1" d="M98.39,33.85c-.44.42-1.15.78-1.6.49-.1-.07-.18-.16-.25-.25-.21-.27-.4-.55-.49-.88-.14-.55.05-1.19.41-1.72s.86-.99,1.38-1.4c2.73-2.17,1.73,2.62.55,3.77Z"/>
  <path class="cls-2" d="M63.58,31.27c.8-.11,1.64.39,1.92,1.15s-.02,1.69-.7,2.13c.77-.24,1.53.48,1.78,1.24s.17,1.6.38,2.38c.16.59.47,1.13.78,1.66.57.97,1.14,1.94,1.71,2.92.67,1.14,1.37,2.43,1.07,3.72.41.07.82.15,1.23.22-.98.84-2.14,1.47-3.38,1.84-.24.07-.52.13-.74,0-.25-.15-.31-.49-.34-.78-.13-1.17-.25-2.35-.38-3.52-.67.08-1.36.05-2.02-.09.75,1.15,1.76,2.17,2.17,3.48s-.11,3.07-1.46,3.34c-1.09-.34-1.27-1.78-1.19-2.91.09-1.13.12-2.53-.86-3.11-.3-.18-.65-.25-.97-.39-.78-.36-1.27-1.14-1.71-1.88-1.14-1.9-2.28-3.8-3.42-5.7-.26-.43-.49-1.05-.1-1.37.17-.14.41-.16.62-.14,1.27.11,2.16,1.23,2.98,2.21.82.98,1.94,1.97,3.19,1.72.06-.93-.65-1.74-1.41-2.29s-1.64-.97-2.22-1.7-.75-1.93-.03-2.53c.22-.18.5-.29.71-.48.68-.63.33-1.75-.06-2.58-.38-.82-3.58-5.96-.61-5.41,1.34.25,2.56,6.97,3.05,6.89Z"/>
  <path class="cls-2" d="M52.91,20.07c1.24,1.12,1.7,2.89,1.65,4.56s-.56,3.28-.98,4.89c-1,3.83-1.56,7.77-1.65,11.73-.02,1.05-.51,2.51-1.52,2.23-.29-.08-.52-.3-.73-.52-.76-.77-1.52-1.55-2.28-2.32-.43.85-.27,1.97.39,2.66-2.2.99-5.11-1.04-4.94-3.45-1.3.49-2.44,2.14-1.54,3.21.27.32.66.5.97.76,1.82,1.51.79,4.99,2.73,6.34-.48,1.13-2.31.58-2.95-.47s-.8-2.43-1.75-3.23c-1.24.46-2.42,1.06-3.52,1.77-.65-1.14-1.29-2.28-1.94-3.41-1.82.46-3.37,1.88-4,3.65,1.32-.32,2.64,1.29,2.08,2.52,1.27.21,2.18-1.29,3.43-1.56.94-.2,1.87.32,2.64.88,2.89,2.11,5.09,5.17,6.16,8.59.91-.38,1.86-.77,2.84-.73s2.03.64,2.24,1.6c-.51,1.75-3.48,1.91-4.17.23-.15-.37-.21-.78-.45-1.1-.58-.76-1.84-.47-2.54.19s-1.14,1.57-1.91,2.14c-.96.7-2.38.7-3.34-.01-.96-.71-1.38-2.07-.99-3.19-1.38,1.09-2.76,2.19-4.14,3.28-.34.27-.75.55-1.16.45-.56-.14-.72-.83-.94-1.37-.58-1.42-2.35-2.23-3.81-1.73"/>
  <path class="cls-2" d="M30.17,80.18c1.15-.73,1.3-2.35,2.16-3.42,1.07-1.33,3.32-1.46,4.52-.26.74.74,1.09,1.84,1.92,2.47.77.59,1.82.67,2.79.64.97-.03,1.97-.13,2.9.18s1.75,1.19,1.62,2.15c-.19,1.4-2.02,1.82-3.42,1.69s-3.05-.4-4.02.63c-.38.41-.57.95-.87,1.42-.63.99-1.76,1.63-2.93,1.66s-2.33-.56-3.01-1.51c-.25-.35-.44-.76-.78-1.04-.7-.58-1.76-.37-2.58.03s-1.59.96-2.5,1.05c-.9.08-1.96-.64-1.78-1.53.07-.35.32-.64.54-.92,1.56-1.96,3.44-9.21,5.43-3.23Z"/>
  <path class="cls-2" d="M38.1,112.63c.66,1.86,1.34,4.19,3.27,4.59,1.09-1.15.57-3.06-.32-4.36-.9-1.3-2.15-2.45-2.48-3.99-.19-.91-.04-1.85.11-2.77.32-1.97.65-3.94.97-5.91,1.96.15,3.38,1.83,4.89,3.1,2.23,1.88,4.99,3.02,7.69,4.12,1.61.66,3.47,1.31,5.03.54-.16-3.21-.04-6.43.37-9.62,1.64-.31,3.16.82,4.49,1.83,2.14,1.63,4.42,3.14,6.97,4.03,1.81.64,3.87.93,5.61.11.95-.44,1.72-1.19,2.38-2.01,1.78-2.23,2.72-5.11,2.6-7.95-.04-.93-.18-1.87.03-2.77.22-.9.94-1.77,1.86-1.79,1.43-.04,2.09,1.69,2.93,2.84.8,1.11,2.03,1.84,2.91,2.88.68.81,1.13,1.78,1.58,2.73,1.48,3.18,2.97,6.37,4.45,9.55.21.46.43.95.35,1.45-.14.83-1.09,1.32-1.93,1.28s-1.61-.47-2.37-.84c-3.31-1.58-7.12-2.08-10.72-1.42-1.62.3-3.25.85-4.5,1.94-2.36,2.04-2.9,5.57-2.28,8.63.25,1.23.65,2.53.19,3.69-.39.99-1.33,1.64-2.23,2.2-1.24.76-2.78,1.48-4.08.82-.6-.3-1.03-.86-1.44-1.39-1.6-2.09-3.19-4.17-4.79-6.26-.04,2.95-1.64,5.77-1.41,8.71.06.8.23,1.73-.3,2.33-.2.22-.47.37-.74.5-2.28,1.18-4.55,2.37-6.83,3.55.79-4.49-1.66-9.36-5.73-11.4-.47-.24-.98-.44-1.51-.45-.46,0-.91.13-1.36.14-2.25.05-3.34-2.63-4.06-4.76-1.19-3.55-2.97-6.89-5.26-9.84-.31-.4,1.13-.63,1.31-.6.48.08,1.46,1.53,1.74,1.88,1.12,1.41,2.01,3,2.61,4.7Z"/>
  <path class="cls-2" d="M50.42,77.3c.76-.2,1.58.34,1.88,1.06s.17,1.57-.14,2.29c-.28.67-.94,1.37-1.64,1.14-.28-.09-.5-.33-.66-.59-.88-1.4-.15-3.53,1.41-4.1"/>
  <path class="cls-2" d="M54.37,89.03c.85.29,1.53,1.22,1.29,2.09s-1.58,1.26-2.1.52c-.22-.31-.25-.72-.19-1.09.12-.73.59-1.4,1.24-1.77"/>
  <path class="cls-2" d="M72.32,133.07c.59-.01,1.22-.02,1.74.26s.9.94.65,1.48c-.09.19-.24.34-.39.49-.68.68-1.74,1.39-2.5.81-.56-.43-.5-1.34-.07-1.9s1.12-.84,1.77-1.1"/>
  <path class="cls-2" d="M70.93,145.35c.47-.09.95-.18,1.41-.06s.9.48.93.95c.04.63-.59,1.08-1.15,1.38-.42.23-.92.45-1.36.28-.5-.2-.69-.89-.43-1.37s.83-.72,1.37-.68"/>
  <path class="cls-2" d="M68.72,157.45c-.52.59-.22,1.67.53,1.91.75.24,1.62-.46,1.55-1.24s-1.07-1.3-1.76-.92"/>
  <path class="cls-2" d="M67.81,166.22c.67.02,1.06.86.87,1.51-.19.64-.74,1.1-1.26,1.52-.3.24-.65.49-1.02.43-.44-.07-.71-.58-.66-1.03s.33-.83.62-1.17c.51-.58,1.1-1.1,1.74-1.53"/>
  <path class="cls-2" d="M58.91,170.23c.65-.31,1.58-.63,1.97-.02.31.49.02,1.31.53,1.58.36.19.77-.1,1.17-.2.58-.14,1.2.17,1.57.63s.54,1.06.66,1.65c.11.57.23,1.23.74,1.53.43.26,1,.14,1.47.31.64.23,1,.96,1,1.64s-.26,1.33-.52,1.96c-.11.26-.25.54-.51.62-.18.05-.38,0-.56-.06-1.59-.43-3.28.06-4.81.69-1.52.63-3.02,1.41-4.66,1.6-.16.02-.33.03-.48-.03-.21-.08-.34-.29-.42-.49-.48-1.21.41-2.79-.41-3.81-.8-.99-2.57-.57-3.43-1.52-.25-.27-.38-.63-.48-.99-1.63-5.86,3.72-3.46,7.19-5.1Z"/>
  <path class="cls-2" d="M50.62,193.4c1.09-.2,2.52-.25,2.99.76.13.27.15.58.3.84.21.38.62.6.93.9.91.87.88,2.44.15,3.48s-1.97,1.6-3.21,1.84c-.67.12-1.38.16-2.02-.08-.43-.16-.83-.45-1.29-.49-.73-.07-1.39.5-2.13.5-.75,0-1.41-.62-1.64-1.34s-.13-1.5.06-2.23c.93-3.53,2.6-3.58,5.85-4.18Z"/>
  <path class="cls-2" d="M43.94,216.51c.37.84.14,1.99.87,2.55.42.33,1.1.36,1.34.84.23.46-.11.99-.45,1.38-.79.89-1.7,1.66-2.7,2.3-.45.29-.92.55-1.44.68-1.05.26-2.15-.07-3.18-.39-1.07-.34-2.2-.71-2.92-1.56-.72-.85-1.16-2.23-2.27-2.3-.41-.03-.86.15-1.21-.06-.54-.31-.37-1.12-.09-1.67,1.56-3.11,2.39-3.62,5.39-3.1,1.86.32,5.65-.93,6.66,1.34Z"/>
  <path class="cls-2" d="M17.95,228.17c.49,1.64,1.64,2.99,2.79,4.26-1.82,1.05-4.36.62-5.73-.97-1.37-1.59-1.41-4.17-.09-5.81.81-1.01,2.11-1.77,3.37-1.96.12,1.52-.84,2.8-.34,4.49Z"/>
  <path class="cls-2" d="M13.78,220.33c-2.27.63-4.35,1.94-5.9,3.72-.12.14-.26.29-.44.28-.21,0-.35-.22-.43-.41-.68-1.6.06-3.62,1.54-4.54s3.49-.76,4.92.23"/>
  <path class="cls-2" d="M8.81,213.48c-.73.52-1.24,1.3-2.01,1.77-.76.46-1.99.41-2.31-.42-.18-.47,0-1.01.22-1.47.54-1.12,1.31-2.13,2.24-2.95.26-.23.54-.44.88-.5.83-.13,1.42.77,1.78,1.53.18.38.29.97-.11,1.12"/>
  <path class="cls-2" d="M6.93,201.46c.43.27.52.9.33,1.38s-.58.83-.96,1.18c-.36.32-.85.66-1.28.44-.43-.23-.42-.83-.33-1.31.22-1.07.79-2.26,1.87-2.42"/>
  <path class="cls-2" d="M55.38,160.52c-.39.35-.79.71-1.29.87s-1.11.09-1.44-.32c-.57-.72.07-1.82-.24-2.68-.43-1.17-2.2-1.12-3-2.07-.8-.95-.31-2.39.22-3.52.24-.52.49-1.04.73-1.56.12-.25.24-.51.44-.7.24-.24.58-.35.91-.43,2.02-.5,4.57.34,5.12,2.35,1.95-1.72,5.07-1.28,4.54,1.93-.39,2.34-4.35,4.65-6,6.13Z"/>
  <path class="cls-2" d="M52.97,143.54c1.51.35,2.27,2.45,1.33,3.68-.21.28-.49.51-.83.6-.96.26-1.85-.81-1.81-1.8s.68-1.84,1.31-2.61"/>
  <path class="cls-2" d="M53.29,135.95c.74.1,1.4.71,1.49,1.45s-.45,1.52-1.19,1.63-1.51-.57-1.43-1.31c.08-.77.86-1.25,1.19-1.95"/>
  <path class="cls-2" d="M37.07,95.49c.83-.29,1.88-.15,2.41.56s.2,1.95-.67,2.11c-.57.1-1.15-.29-1.37-.83s-.09-1.17.22-1.65"/>
  <path class="cls-2" d="M31.3,68.01c.65-.38,1.54-.33,2.1.17s.69,1.43.25,2.03-1.43.73-1.98.21-.44-1.56.23-1.91"/>
  <path class="cls-2" d="M78.68,19.74c.86.22,1.75.46,2.43,1.03s1.1,1.55.74,2.36c-.21.47-.66.86-.64,1.37.02.37.29.68.36,1.04.15.88-1.06,1.49-1.86,1.1s-1.16-1.33-1.31-2.21-.15-1.8-.53-2.6c-.27-.55-.71-1.04-.81-1.64s.44-1.36,1.01-1.13"/>
  <path class="cls-2" d="M73.01,11.36c-.11.29-.42.46-.72.55-.46.13-.97.12-1.43-.02-.56-.18-1.13-.57-1.7-.41-.79.22-.99,1.28-1.68,1.73-.83.54-1.96-.07-2.53-.87s-.86-1.8-1.52-2.53c-.17-.19-.37-.36-.49-.58-.39-.69.09-1.58.7-2.08,1.04-.86,2.51-1.15,3.8-.76,1.63.49,2.82-.36,3.97.83.34.35,1.74,3.75,1.59,4.15Z"/>
  <path class="cls-2" d="M93.83,25.43c0,.78-.11,1.59-.55,2.23s-1.29,1.04-2.02.79c-.95-.33-1.25-1.69-.68-2.52s1.74-1.09,2.7-.79"/>
  <path class="cls-2" d="M93.19,46.47c-.86-1.05-1.18-2.51-.86-3.83.15-.62.36-1.44-.19-1.75-.6-.34-1.23.4-1.5,1.04s-.75,1.44-1.41,1.24c-.3-.09-.5-.36-.68-.62-.44-.63-.87-1.26-1.31-1.9-.25.85-.51,1.7-.76,2.55-.07.24-.15.49-.35.65-.38.3-.94.05-1.29-.28s-.63-.77-1.09-.92c-.34,1.35-.68,2.69-1.02,4.04-.84-.35-1.76-.51-2.66-.46-.04.98-.08,1.95-.12,2.93-.66-.05-1.2-.84-1.83-.62-1.04.35.09,2.27-.74,2.98-1.08-.66-2.32-1.06-3.58-1.16.04.66-.06,1.52-.71,1.66-.45.09-.86-.25-1.3-.36-.89-.22-1.81.83-1.48,1.69-1.04-.12-2.03.95-1.83,1.98"/>
  <path class="cls-2" d="M97.93,123.33c-1.35.07-3.01.37-3.41,1.66-.23.74.11,1.57.68,2.09s1.35.76,2.11.85"/>
  <path class="cls-2" d="M95.5,137.17c-.94.06-1.87.12-2.81.17-.19.01-.4.03-.55.15-.13.11-.19.28-.25.45-.2.61-.4,1.23-.38,1.86s.29,1.31.84,1.63"/>
  <path class="cls-2" d="M87.34,149.74l-1.15-2.04c-.11-.2-.24-.4-.44-.49-.51-.2-.91.47-1.06,1-.36,1.29-.71,2.59-1.07,3.88"/>
  <path class="cls-2" d="M78.01,154c-.82-.49-2.04-.1-2.42.79s.17,2.04,1.09,2.3"/>
  <path class="cls-2" d="M78.2,161.53c-.56-.29-1.32-.12-1.71.37s-.37,1.27.04,1.75"/>
  <path class="cls-2" d="M75.93,167.49c-.61-.1-1.16.48-1.27,1.08s.1,1.22.3,1.8"/>
  <path class="cls-2" d="M73.52,174.01c-1.84.56-2.93,2.83-2.22,4.62"/>
</svg>